<svg width="1591" height="143" viewBox="0 0 1591 143" fill="none" xmlns="http://www.w3.org/2000/svg">
<path d="M0.416 4.392H47.792C56.3147 4.392 64.0853 6.20933 71.104 9.84399C78.1227 13.3533 83.6373 18.3667 87.648 24.884C91.6587 31.276 93.664 38.608 93.664 46.88C93.664 55.152 91.6587 62.5467 87.648 69.064C83.6373 75.5813 78.1227 80.6573 71.104 84.292C64.0853 87.8013 56.3147 89.556 47.792 89.556H25.796V139H0.416V4.392ZM48.544 65.492C54.8107 65.492 59.6987 63.6747 63.208 60.04C66.8427 56.4053 68.66 52.0187 68.66 46.88C68.66 41.7413 66.8427 37.4173 63.208 33.908C59.6987 30.2733 54.8107 28.456 48.544 28.456H25.796V65.492H48.544ZM112.696 4.392H137.324V38.42L135.82 55.152H137.324C140.081 50.64 144.092 47.0053 149.356 44.248C154.62 41.4907 160.323 40.112 166.464 40.112C178.12 40.112 187.019 43.6213 193.16 50.64C199.427 57.5333 202.56 67.1213 202.56 79.404V139H177.932V82.412C177.932 76.2707 176.24 71.508 172.856 68.124C169.597 64.74 165.211 63.048 159.696 63.048C153.179 63.048 147.789 65.68 143.528 70.944C139.392 76.208 137.324 82.6627 137.324 90.308V139H112.696V4.392ZM271.662 142.008C261.76 142.008 252.924 139.815 245.154 135.428C237.383 130.916 231.304 124.837 226.918 117.192C222.656 109.421 220.526 100.711 220.526 91.06C220.526 81.5347 222.656 72.8867 226.918 65.116C231.304 57.3453 237.383 51.2667 245.154 46.88C252.924 42.368 261.76 40.112 271.662 40.112C281.438 40.112 290.211 42.368 297.982 46.88C305.752 51.2667 311.768 57.3453 316.03 65.116C320.416 72.8867 322.61 81.5347 322.61 91.06C322.61 100.711 320.416 109.421 316.03 117.192C311.768 124.837 305.752 130.916 297.982 135.428C290.211 139.815 281.438 142.008 271.662 142.008ZM271.662 119.26C276.424 119.26 280.811 118.132 284.822 115.876C288.832 113.62 292.028 110.361 294.41 106.1C296.791 101.839 297.982 96.8253 297.982 91.06C297.982 85.42 296.791 80.4693 294.41 76.208C292.028 71.9467 288.832 68.688 284.822 66.432C280.811 64.176 276.424 63.048 271.662 63.048C266.899 63.048 262.512 64.176 258.502 66.432C254.491 68.688 251.232 71.9467 248.726 76.208C246.344 80.4693 245.154 85.42 245.154 91.06C245.154 96.7 246.344 101.713 248.726 106.1C251.232 110.361 254.491 113.62 258.502 115.876C262.512 118.132 266.899 119.26 271.662 119.26ZM386.386 142.008C376.861 142.008 368.275 139.815 360.63 135.428C352.985 131.041 346.969 125.025 342.582 117.38C338.321 109.609 336.19 100.899 336.19 91.248C336.19 82.0987 338.321 73.6387 342.582 65.868C346.843 57.972 352.734 51.7053 360.254 47.068C367.774 42.4307 376.171 40.112 385.446 40.112C395.347 40.112 403.87 42.2427 411.014 46.504C418.158 50.7653 423.547 56.5933 427.182 63.988C430.942 71.3827 432.822 79.592 432.822 88.616C432.822 91.4987 432.634 94.256 432.258 96.888H360.254C361.507 104.533 364.515 110.361 369.278 114.372C374.166 118.257 379.994 120.2 386.762 120.2C392.402 120.2 397.227 119.009 401.238 116.628C405.374 114.121 408.633 110.8 411.014 106.664L430.942 116.44C421.166 133.485 406.314 142.008 386.386 142.008ZM409.134 79.404C408.883 76.396 407.755 73.4507 405.75 70.568C403.87 67.56 401.175 65.116 397.666 63.236C394.282 61.2307 390.271 60.228 385.634 60.228C379.743 60.228 374.667 61.9827 370.406 65.492C366.27 68.876 363.262 73.5133 361.382 79.404H409.134ZM451.794 43.12H474.918V55.152H476.422C479.304 50.5147 483.378 46.88 488.642 44.248C493.906 41.4907 499.608 40.112 505.75 40.112C517.28 40.112 526.054 43.6213 532.07 50.64C538.086 57.6587 541.094 67.2467 541.094 79.404V139H516.466V82.412C516.466 76.2707 514.899 71.508 511.766 68.124C508.632 64.74 504.246 63.048 498.606 63.048C491.963 63.048 486.574 65.6173 482.438 70.756C478.427 75.8947 476.422 82.3493 476.422 90.12V139H451.794V43.12ZM578.249 32.592C573.862 32.592 570.102 31.0253 566.969 27.892C563.835 24.7587 562.269 20.9987 562.269 16.612C562.269 12.2253 563.835 8.52799 566.969 5.51999C570.102 2.38666 573.862 0.819997 578.249 0.819997C582.635 0.819997 586.333 2.38666 589.341 5.51999C592.474 8.52799 594.041 12.2253 594.041 16.612C594.041 20.9987 592.474 24.7587 589.341 27.892C586.333 31.0253 582.635 32.592 578.249 32.592ZM565.841 43.12H590.469V139H565.841V43.12ZM639.982 90.308L606.894 43.12H636.034L654.27 70.568H655.398L672.506 43.12H702.586L668.934 90.308L702.586 139H673.446L655.022 110.988H653.894L635.846 139H606.706L639.982 90.308ZM784.266 28.456H746.666V4.392H847.246V28.456H809.646V139H784.266V28.456ZM894.789 28.456H857.189V4.392H957.769V28.456H920.169V139H894.789V28.456ZM978.053 4.392H1010.76L1046.48 98.956H1047.99L1083.71 4.392H1116.61V139H1091.42V72.636L1092.92 50.264H1091.42L1057.2 139H1037.46L1003.06 50.264H1001.55L1003.06 72.636V139H978.053V4.392ZM1191.39 4.392H1236.88C1250.92 4.392 1263.14 7.212 1273.54 12.852C1283.95 18.492 1291.97 26.388 1297.61 36.54C1303.25 46.692 1306.07 58.4107 1306.07 71.696C1306.07 84.9813 1303.25 96.7 1297.61 106.852C1291.97 117.004 1283.95 124.9 1273.54 130.54C1263.14 136.18 1250.92 139 1236.88 139H1191.39V4.392ZM1235.76 114.936C1250.3 114.936 1261.39 111.113 1269.03 103.468C1276.68 95.6973 1280.5 85.1067 1280.5 71.696C1280.5 58.2853 1276.68 47.7573 1269.03 40.112C1261.39 32.3413 1250.3 28.456 1235.76 28.456H1216.77V114.936H1235.76ZM1362.28 4.392H1391.42L1441.99 139H1413.98L1402.7 106.852H1351.19L1339.91 139H1311.9L1362.28 4.392ZM1394.43 83.54L1382.59 49.7L1377.7 33.532H1376.19L1371.31 49.7L1359.27 83.54H1394.43ZM1520.04 142.008C1506.88 142.008 1494.91 138.937 1484.13 132.796C1473.48 126.529 1465.08 118.007 1458.94 107.228C1452.8 96.4493 1449.73 84.6053 1449.73 71.696C1449.73 58.7867 1452.8 46.9427 1458.94 36.164C1465.08 25.3853 1473.48 16.9253 1484.13 10.784C1494.91 4.51732 1506.88 1.38399 1520.04 1.38399C1533.2 1.38399 1545.11 4.51732 1555.76 10.784C1566.54 16.9253 1575 25.3853 1581.14 36.164C1587.28 46.9427 1590.35 58.7867 1590.35 71.696C1590.35 84.6053 1587.28 96.4493 1581.14 107.228C1575 118.007 1566.54 126.529 1555.76 132.796C1545.11 138.937 1533.2 142.008 1520.04 142.008ZM1520.04 117.944C1528.31 117.944 1535.9 116.001 1542.79 112.116C1549.68 108.231 1555.07 102.779 1558.96 95.76C1562.97 88.7413 1564.97 80.72 1564.97 71.696C1564.97 62.672 1562.97 54.6507 1558.96 47.632C1555.07 40.6133 1549.68 35.1613 1542.79 31.276C1535.9 27.3907 1528.31 25.448 1520.04 25.448C1511.77 25.448 1504.19 27.3907 1497.29 31.276C1490.53 35.1613 1485.14 40.6133 1481.13 47.632C1477.24 54.6507 1475.3 62.672 1475.3 71.696C1475.3 80.72 1477.24 88.7413 1481.13 95.76C1485.14 102.779 1490.53 108.231 1497.29 112.116C1504.19 116.001 1511.77 117.944 1520.04 117.944Z" fill="white"/>
</svg>
