<svg version="1.1" id="Слой_1" xmlns="http://www.w3.org/2000/svg" x="0" y="0" viewBox="0 0 1440 900" xml:space="preserve"><style>.st0{fill:#fff}.st2{fill:#1c1b4f}.st3{fill:#9a1b77}</style><ellipse class="st0" cx="1281.396" cy="17.093" rx="2.016" ry="2.007"/><ellipse class="st0" cx="668.152" cy="312.108" rx="1.629" ry="1.622"/><ellipse class="st0" cx="590.566" cy="276.105" rx="2.103" ry="2.111"/><ellipse class="st0" cx="1403.76" cy="209.952" rx="1.114" ry="1.118"/><ellipse class="st0" cx="1243.473" cy="49.728" rx="1.114" ry="1.118"/><ellipse class="st0" cx="1402.646" cy="161.2" rx="1.114" ry="1.118"/><ellipse class="st0" cx="715.721" cy="342.899" rx=".9" ry=".904"/><ellipse class="st0" cx="550.581" cy="273.993" rx=".9" ry=".904"/><ellipse class="st0" cx="237.67" cy="230.575" rx=".9" ry=".904"/><ellipse class="st0" cx="44.477" cy="195.894" rx=".9" ry=".904"/><ellipse class="st0" cx="198.481" cy="154.67" rx=".9" ry=".904"/><ellipse class="st0" cx="76.633" cy="69.111" rx=".9" ry=".904"/><ellipse class="st0" cx="138.079" cy="17.41" rx=".9" ry=".904"/><ellipse class="st0" cx="107.55" cy="45.027" rx="2.103" ry="2.111"/><ellipse cx="1002.702" cy="296.315" rx="3.446" ry="3.459" fill="#9cffff"/><ellipse class="st0" cx="64.382" cy="20.304" rx="2.885" ry="2.895"/><ellipse class="st0" cx="680.831" cy="366.814" rx=".604" ry=".607"/><ellipse class="st0" cx="588.463" cy="300.746" rx=".604" ry=".607"/><ellipse class="st0" cx="1336.969" cy="230.728" rx=".748" ry=".751"/><ellipse class="st0" cx="853.814" cy="535.99" rx=".604" ry=".607"/><ellipse class="st0" cx="819.751" cy="460.891" rx=".604" ry=".607"/><ellipse class="st0" cx="618.995" cy="526.652" rx=".604" ry=".607"/><ellipse class="st0" cx="652.401" cy="504.06" rx=".604" ry=".607"/><ellipse class="st0" cx="1159.178" cy="198.749" rx=".604" ry=".607"/><ellipse class="st0" cx="1125.115" cy="123.65" rx=".604" ry=".607"/><ellipse class="st0" cx="924.359" cy="189.411" rx=".604" ry=".607"/><ellipse class="st0" cx="957.765" cy="166.819" rx=".604" ry=".607"/><ellipse class="st0" cx="714.821" cy="230.575" rx=".604" ry=".607"/><ellipse class="st0" cx="748.5" cy="310.485" rx=".604" ry=".607"/><circle class="st0" cx="521.034" cy="296.973" r=".438"/><circle class="st0" cx="19.935" cy="220.553" r=".438"/><circle class="st0" cx="1142.443" cy="459.697" r=".408"/><ellipse class="st0" cx="940.578" cy="899.096" rx=".9" ry=".904"/><ellipse class="st0" cx="884.577" cy="857.095" rx=".9" ry=".904"/><ellipse class="st2" cx="68.276" cy="790.782" rx="9.617" ry="9.652"/><path class="st3" d="M62.081 790.782c0-4.243 2.458-7.9 6.018-9.644-5.229.096-9.439 4.372-9.439 9.644s4.211 9.548 9.439 9.644a10.73 10.73 0 01-6.018-9.644z"/><ellipse transform="rotate(-46.868 1426.649 662.86)" class="st2" cx="1426.687" cy="662.877" rx="11.712" ry="11.668"/><path class="st3" d="M1421.152 657.802a13.017 13.017 0 0113.327-3.547c-4.709-4.252-11.985-3.958-16.357.709-4.372 4.666-4.191 11.946.358 16.368-1.705-4.495-.848-9.773 2.672-13.53z"/><ellipse class="st2" cx="68.276" cy="596.126" rx="9.617" ry="9.652"/><path class="st3" d="M62.081 596.126c0-4.243 2.458-7.901 6.018-9.644-5.229.096-9.439 4.372-9.439 9.644s4.211 9.548 9.439 9.644a10.733 10.733 0 01-6.018-9.644z"/><ellipse class="st0" cx="925.715" cy="705.331" rx="1.96" ry="1.968"/><ellipse class="st0" cx="99.289" cy="635.184" rx="1.96" ry="1.968"/><ellipse class="st0" cx="550.508" cy="571.562" rx="1.96" ry="1.968"/><ellipse class="st0" cx="1253.942" cy="623.428" rx="1.96" ry="1.968"/><ellipse class="st0" cx="1199.218" cy="596.126" rx="1.96" ry="1.968"/><circle class="st0" cx="87.146" cy="690.076" r=".408"/><circle cx="995.752" cy="650.805" r=".408" opacity=".35" fill="#fff"/><circle cx="981.115" cy="598.685" r=".408" opacity=".45" fill="#fff"/><circle cx="1069.932" cy="689.667" r=".408" opacity=".73" fill="#fff"/><circle class="st0" cx="1172.676" cy="635.217" r=".408"/><circle class="st0" cx="1281.706" cy="570.188" r=".408"/><circle class="st0" cx="1263.806" cy="663.065" r=".408"/><circle class="st0" cx="1165.201" cy="624.805" r=".408"/><circle class="st0" cx="1156.275" cy="596.126" r=".408"/><ellipse class="st0" cx="1354.389" cy="724.88" rx=".588" ry=".59"/><ellipse class="st0" cx="1310.343" cy="625.397" rx=".588" ry=".59"/><ellipse class="st0" cx="1171.68" cy="598.094" rx=".588" ry=".59"/><ellipse class="st0" cx="1151.56" cy="615.006" rx=".588" ry=".59"/><ellipse class="st0" cx="1194.498" cy="613.824" rx=".588" ry=".59"/><ellipse class="st0" cx="763.974" cy="594.158" rx=".588" ry=".59"/><ellipse class="st0" cx="391.536" cy="781.139" rx=".588" ry=".59"/><ellipse class="st0" cx="114.704" cy="889.824" rx=".588" ry=".59"/></svg>